<svg width="137" height="35" fill="none" xmlns="http://www.w3.org/2000/svg">
  <path fill-rule="evenodd" clip-rule="evenodd" d="M13.4 7a2 2 0 1 0 0-4 2 2 0 0 0 0 4Zm0 3a5 5 0 1 0 0-10 5 5 0 0 0 0 10Zm2.518 4.701L4.799 17.81l1.61 2.404 8.762-3.135 1.01 2.824-3.61 1.293 1.757 1.996 2.478-1.068 1.188 2.754-4.478 1.932-3.985-4.527-4.313 1.544L0 16.035l15.742-4.4a1.977 1.977 0 0 1 2.014.596 19.143 19.143 0 0 1 2.885 21.006l-.77 1.592-7.433-2.402.922-2.854 4.926 1.591a16.143 16.143 0 0 0-2.368-16.463Z" fill="#fff"/>
  <path d="M37.61 9.77c-.453.453-.997.68-1.632.68-.635 0-1.19-.227-1.666-.68-.453-.476-.68-1.031-.68-1.666s.227-1.179.68-1.632a2.212 2.212 0 0 1 1.666-.714c.657 0 1.213.238 1.666.714.453.453.68.997.68 1.632 0 .635-.238 1.19-.714 1.666ZM34.142 30V13h3.672v17h-3.672Zm15.28.442c-2.562 0-4.704-.861-6.426-2.584-1.7-1.723-2.55-3.842-2.55-6.358 0-2.539.85-4.658 2.55-6.358 1.722-1.723 3.864-2.584 6.425-2.584 1.655 0 3.163.397 4.523 1.19 1.36.793 2.38 1.859 3.06 3.196l-3.162 1.836a4.225 4.225 0 0 0-1.768-1.904c-.771-.476-1.666-.714-2.686-.714-1.496 0-2.755.51-3.774 1.53-.998 1.02-1.496 2.29-1.496 3.808 0 1.519.498 2.788 1.495 3.808 1.02 1.02 2.279 1.53 3.775 1.53.997 0 1.892-.238 2.686-.714.816-.476 1.428-1.11 1.836-1.904l3.162 1.802c-.726 1.36-1.769 2.437-3.129 3.23-1.36.793-2.867 1.19-4.521 1.19Zm17.382 0c-2.493 0-4.613-.861-6.358-2.584-1.745-1.723-2.618-3.842-2.618-6.358 0-2.516.873-4.635 2.618-6.358 1.745-1.723 3.865-2.584 6.358-2.584 2.516 0 4.635.861 6.358 2.584 1.745 1.723 2.618 3.842 2.618 6.358 0 2.516-.873 4.635-2.618 6.358-1.723 1.723-3.842 2.584-6.358 2.584Zm-3.774-5.1c1.02 1.02 2.278 1.53 3.774 1.53s2.754-.51 3.774-1.53 1.53-2.3 1.53-3.842c0-1.541-.51-2.822-1.53-3.842s-2.278-1.53-3.774-1.53-2.754.51-3.774 1.53-1.53 2.3-1.53 3.842c0 1.541.51 2.822 1.53 3.842Z" fill="#fff" fill-opacity=".6"/>
  <path d="M87.328 9.294c-2.674-.25-4.012.873-4.012 3.366V13h4.012v3.536h-4.012V30h-3.672V16.536H77.06V13h2.584v-.34c0-2.335.646-4.103 1.938-5.304 1.315-1.224 3.23-1.757 5.746-1.598v3.536Zm8.696 21.148c-2.493 0-4.612-.861-6.358-2.584-1.745-1.723-2.618-3.842-2.618-6.358 0-2.516.873-4.635 2.618-6.358 1.746-1.723 3.865-2.584 6.358-2.584 2.516 0 4.635.861 6.358 2.584C104.127 16.865 105 18.984 105 21.5c0 2.516-.873 4.635-2.618 6.358-1.723 1.723-3.842 2.584-6.358 2.584Zm-3.774-5.1c1.02 1.02 2.278 1.53 3.774 1.53s2.754-.51 3.774-1.53 1.53-2.3 1.53-3.842c0-1.541-.51-2.822-1.53-3.842s-2.278-1.53-3.774-1.53-2.754.51-3.774 1.53-1.53 2.3-1.53 3.842c0 1.541.51 2.822 1.53 3.842Zm24.332-12.784c1.95 0 3.525.623 4.726 1.87 1.202 1.247 1.802 2.958 1.802 5.134V30h-3.672V19.936c0-1.27-.34-2.244-1.02-2.924-.68-.68-1.609-1.02-2.788-1.02-1.292 0-2.334.408-3.128 1.224-.793.793-1.19 2.017-1.19 3.672V30h-3.672V13h3.672v2.176c1.111-1.745 2.868-2.618 5.27-2.618Zm19.288 3.978h-4.216v8.16c0 .703.159 1.213.476 1.53.318.295.782.465 1.394.51.635.023 1.417.011 2.346-.034V30c-2.81.34-4.828.102-6.052-.714-1.224-.839-1.836-2.369-1.836-4.59v-8.16h-3.128V13h3.128V9.328l3.672-1.088V13h4.216v3.536Z" fill="#fff"/>
</svg>